<?xml version="1.0" encoding="iso-8859-1"?>
<!-- Generator: Adobe Illustrator 16.0.0, SVG Export Plug-In . SVG Version: 6.00 Build 0)  -->
<!DOCTYPE svg PUBLIC "-//W3C//DTD SVG 1.1//EN" "http://www.w3.org/Graphics/SVG/1.1/DTD/svg11.dtd">
<svg version="1.1" id="Capa_1" xmlns="http://www.w3.org/2000/svg" xmlns:xlink="http://www.w3.org/1999/xlink" x="0px" y="0px"
	 width="325.052px" height="325.052px" viewBox="0 0 325.052 325.052" style="enable-background:new 0 0 325.052 325.052;"
	 xml:space="preserve">
<g>
	<path d="M298.21,0.003H26.845C12.04,0.003,0,12.037,0,26.833v271.38c0,14.796,12.04,26.836,26.845,26.836H298.21
		c14.808,0,26.842-12.04,26.842-26.836V26.833C325.052,12.037,313.018,0.003,298.21,0.003z M155.38,245.022H76.639v-25.352
		l43.835-39.367c2.23-2.019,4.458-4.307,6.695-6.846c2.239-2.564,3.351-5.525,3.351-8.933c0-3.825-1.387-6.833-4.149-9.01
		c-2.769-2.183-6.008-3.27-9.722-3.27c-4.465,0-7.944,1.39-10.439,4.149c-2.498,2.762-3.918,6.161-4.218,10.193l-23.932-1.75
		c0.324-5.834,1.543-10.914,3.678-15.219c2.12-4.309,4.942-7.899,8.449-10.773c3.498-2.864,7.623-5.017,12.358-6.437
		c4.729-1.45,9.851-2.165,15.384-2.165c5.104,0,9.875,0.708,14.339,2.165c4.471,1.414,8.338,3.542,11.641,6.365
		c3.303,2.81,5.878,6.35,7.728,10.592c1.871,4.264,2.792,9.199,2.792,14.832c0,3.627-0.37,6.875-1.114,9.812
		c-0.75,2.925-1.783,5.585-3.11,7.975c-1.327,2.384-2.903,4.6-4.705,6.605c-1.813,2.023-3.768,3.981-5.891,5.909l-34.278,29.495
		h50.059v21.028H155.38z M246.173,227.97c-2.174,4.251-5.104,7.781-8.767,10.604c-3.663,2.811-7.975,4.912-12.923,6.306
		c-4.936,1.369-10.16,2.054-15.696,2.054c-10.101,0-18.783-2.33-26.061-7.002c-7.29-4.684-12.088-12.069-14.436-22.164l25.195-5.902
		c0.854,4.041,2.576,7.229,5.177,9.56c2.605,2.354,6.461,3.513,11.565,3.513c5.199,0,9.055-1.357,11.553-4.064
		c2.486-2.715,3.747-6.197,3.747-10.438c0-3.188-0.661-5.668-1.993-7.422c-1.334-1.741-3.051-3.05-5.183-3.902
		c-2.132-0.847-4.521-1.352-7.176-1.514c-2.654-0.156-5.309-0.24-7.962-0.24h-5.591v-20.729h7.812c2.233,0,4.407-0.156,6.539-0.456
		c2.119-0.337,4.06-0.937,5.812-1.861c1.747-0.889,3.171-2.174,4.233-3.819c1.057-1.651,1.585-3.783,1.585-6.446
		c0-3.407-1.345-6.229-4.059-8.46c-2.702-2.231-6.029-3.345-9.956-3.345c-3.724,0-6.81,1.002-9.26,3.036
		c-2.438,2.023-4.035,4.509-4.773,7.484l-26.308-5.41c1.285-4.896,3.188-9.07,5.747-12.52c2.546-3.456,5.578-6.248,9.085-8.362
		c3.501-2.128,7.416-3.702,11.716-4.723c4.299-0.997,8.856-1.501,13.637-1.501c4.996,0,9.8,0.615,14.436,1.825
		c4.611,1.226,8.683,3.149,12.184,5.744c3.513,2.609,6.299,5.878,8.364,9.803c2.084,3.942,3.117,8.62,3.117,14.036
		c0,6.28-1.651,11.638-4.942,16.093c-3.297,4.479-8.076,7.338-14.352,8.623v0.469c3.405,0.426,6.401,1.423,9.008,3.025
		c2.605,1.598,4.815,3.567,6.604,5.909c1.813,2.33,3.207,4.996,4.162,7.962c0.942,2.973,1.435,6.125,1.435,9.398
		C249.451,218.782,248.347,223.729,246.173,227.97z M297.46,52.122H27.601V27.601H297.46V52.122z"/>
</g>
<g>
</g>
<g>
</g>
<g>
</g>
<g>
</g>
<g>
</g>
<g>
</g>
<g>
</g>
<g>
</g>
<g>
</g>
<g>
</g>
<g>
</g>
<g>
</g>
<g>
</g>
<g>
</g>
<g>
</g>
</svg>
