<?xml version="1.0" encoding="UTF-8" standalone="no"?>
<!DOCTYPE svg PUBLIC "-//W3C//DTD SVG 1.1//EN" "http://www.w3.org/Graphics/SVG/1.1/DTD/svg11.dtd">
<svg version="1.1" 
  xmlns="http://www.w3.org/2000/svg" 
  xmlns:xlink="http://www.w3.org/1999/xlink" preserveAspectRatio="xMidYMid meet" viewBox="0 0 640 640" width="100%" height="100%">
  <defs>
    <path d="M323.37 493.97C323.37 508.34 311.83 520 297.62 520C283.41 520 271.87 508.34 271.87 493.97C271.87 479.6 283.41 467.94 297.62 467.94C311.83 467.94 323.37 479.6 323.37 493.97Z" id="cdGkjz6GB"></path>
    <path d="M336.25 272.7C318.37 293.7 307.2 306.83 302.73 312.09C282.81 335.49 271.87 365.22 271.87 395.95C271.87 401.01 271.87 413.64 271.87 433.86L323.37 433.86C323.37 413.64 323.37 401.01 323.37 395.95C323.37 365.22 334.31 335.49 354.22 312.09C358.69 306.83 369.87 293.7 387.74 272.7C387.74 272.7 392.74 272.7 403.68 228.18C403.68 164.44 359.73 120 305.59 120C251.45 120 207.5 164.44 207.5 219.18L259 219.18C259 192 278.29 171.5 305.59 171.5C332.59 171.5 353.68 201.18 353.68 228.18Z" id="b33JfLrtSM"></path>
  </defs>
  <g>
    <g>
      <g>
        <use xlink:href="#cdGkjz6GB" opacity="1" fill="#ffffff" fill-opacity="1"></use>
      </g>
      <g>
        <g>
          <use xlink:href="#b33JfLrtSM" opacity="1" fill="#fafafa" fill-opacity="1"></use>
        </g>
      </g>
    </g>
  </g>
</svg>
