<svg id="Layer_1" enable-background="new 0 0 512 512" height="512" viewBox="0 0 512 512" width="512" 
  xmlns="http://www.w3.org/2000/svg">
  <path d="m314 148c5.51 0 10-4.49 10-10s-4.49-10-10-10c-5.521 0-10 4.49-10 10s4.479 10 10 10z"/>
  <path d="m221 148h48c5.51 0 10-4.49 10-10s-4.49-10-10-10h-48c-5.51 0-10 4.49-10 10s4.49 10 10 10z"/>
  <path d="m176 148c5.51 0 10-4.49 10-10s-4.49-10-10-10-10 4.49-10 10 4.49 10 10 10z"/>
  <path d="m83 148h48c5.51 0 10-4.49 10-10s-4.49-10-10-10h-48c-5.51 0-10 4.49-10 10s4.49 10 10 10z"/>
  <path d="m176 198h48c5.523 0 10-4.478 10-10s-4.477-10-10-10h-48c-5.523 0-10 4.478-10 10s4.477 10 10 10z"/>
  <path d="m269 178c-5.522 0-10 4.478-10 10s4.478 10 10 10h48c5.522 0 10-4.478 10-10s-4.478-10-10-10z"/>
  <path d="m83 198h48c5.523 0 10-4.478 10-10s-4.477-10-10-10h-48c-5.523 0-10 4.478-10 10s4.477 10 10 10z"/>
  <path d="m176 248c5.51 0 10-4.49 10-10s-4.49-10-10-10-10 4.49-10 10 4.49 10 10 10z"/>
  <path d="m83 248h48c5.51 0 10-4.49 10-10s-4.49-10-10-10h-48c-5.51 0-10 4.49-10 10s4.49 10 10 10z"/>
  <path d="m509.069 96.93c-1.859-1.861-4.439-2.93-7.069-2.93h-102v-70c0-5.522-4.478-10-10-10h-380c-5.523 0-10 4.478-10 10v320c0 5.522 4.477 10 10 10h70v44c0 3.892 2.257 7.429 5.786 9.069 1.346.625 2.784.931 4.212.931 2.317 0 4.611-.805 6.451-2.357l15.551-13.122v31.479c0 2.63 1.07 5.21 2.93 7.069 1.86 1.86 4.44 2.931 7.07 2.931h211.859l61.07 61.069c1.89 1.891 4.4 2.931 7.07 2.931 1.319 0 2.609-.26 3.83-.76 3.739-1.551 6.17-5.181 6.17-9.24v-54h90c2.63 0 5.21-1.07 7.069-2.931 1.862-1.859 2.932-4.439 2.932-7.069v-130c0-5.51-4.49-10-10-10s-10 4.49-10 10v120h-90c-2.63 0-5.21 1.069-7.07 2.93s-2.93 4.44-2.93 7.07v39.859l-46.931-46.93c-1.859-1.86-4.439-2.93-7.069-2.93h-206v-38.354l25.655-21.645h232.345c5.522 0 10-4.478 10-10v-230h92v90c0 5.51 4.49 10 10 10 5.52 0 10-4.49 10-10v-100c0-2.641-1.07-5.21-2.931-7.07zm-129.069 237.07h-226c-2.36 0-4.645.835-6.449 2.357l-47.551 40.122v-32.479c0-5.522-4.477-10-10-10h-70v-300h360z"/>
  <path d="m502 239c-5.51 0-10 4.49-10 10s4.49 10 10 10 10-4.49 10-10-4.49-10-10-10z"/>
</svg>