<?xml version="1.0" encoding="iso-8859-1"?>
<!-- Generator: Adobe Illustrator 19.0.0, SVG Export Plug-In . SVG Version: 6.00 Build 0)  -->
<svg version="1.1" id="Capa_1" 
	xmlns="http://www.w3.org/2000/svg" 
	xmlns:xlink="http://www.w3.org/1999/xlink" x="0px" y="0px" viewBox="0 0 512 512" style="enable-background:new 0 0 512 512;" xml:space="preserve" width="100%" height="100%">
	<g>
		<g>
			<path d="M437.02,74.98C388.667,26.629,324.38,0,256,0S123.333,26.629,74.98,74.98C26.629,123.332,0,187.62,0,256
			s26.629,132.668,74.98,181.02C123.333,485.371,187.62,512,256,512s132.667-26.629,181.02-74.98
			C485.371,388.668,512,324.38,512,256S485.371,123.332,437.02,74.98z M256,497c-110.163,0-203.3-74.298-231.932-175.417h27.554v-15
			H20.34C16.842,290.268,15,273.345,15,256C15,123.112,123.112,15,256,15c124.39,0,227.072,94.728,239.695,215.833H479v15h17.788
			C496.929,249.205,497,252.594,497,256C497,388.888,388.888,497,256,497z"/>
		</g>
	</g>
	<g>
		<g>
			<path d="M96.194,96.194C53.508,138.88,30,195.634,30,256h15c0-116.346,94.654-211,211-211V30
			C195.633,30,138.879,53.508,96.194,96.194z"/>
		</g>
	</g>
	<g>
		<g>
			<path d="M139.456,431.922l-8.295,12.498c4.296,2.852,8.741,5.587,13.21,8.131l7.42-13.037
			C147.618,437.139,143.468,434.585,139.456,431.922z"/>
		</g>
	</g>
	<g>
		<g>
			<path d="M73.706,362.324l-12.949,7.57c2.599,4.446,5.385,8.857,8.281,13.112l12.4-8.439
			C78.734,370.595,76.133,366.476,73.706,362.324z"/>
		</g>
	</g>
	<g>
		<g>
			<path d="M102.599,400.878l-10.902,10.303c3.535,3.741,7.245,7.409,11.027,10.901l10.177-11.02
			C109.368,407.8,105.902,404.373,102.599,400.878z"/>
		</g>
	</g>
	<g>
		<g>
			<path d="M120.145,417.451l-9.664,11.473c3.939,3.318,8.043,6.542,12.196,9.581l8.857-12.105
			C127.656,423.562,123.824,420.551,120.145,417.451z"/>
		</g>
	</g>
	<g>
		<g>
			<path d="M87.053,382.425l-12.003,8.996c3.085,4.117,6.355,8.183,9.719,12.084l11.36-9.795
			C92.988,390.066,89.935,386.27,87.053,382.425z"/>
		</g>
	</g>
	<g>
		<g>
			<path d="M160.289,444.096l-6.813,13.364c4.592,2.341,9.322,4.551,14.059,6.566l5.875-13.801
			C168.99,448.343,164.575,446.281,160.289,444.096z"/>
		</g>
	</g>
	<g>
		<g>
			<path d="M467,256c0,116.346-94.654,211-211,211v15c60.367,0,117.121-23.508,159.806-66.194C458.492,373.12,482,316.366,482,256
			H467z"/>
		</g>
	</g>
	<g>
		<g>
			<path d="M284.741,31.812l-1.888,14.881c4.768,0.604,9.576,1.384,14.29,2.315l2.909-14.715
			C295.001,33.295,289.85,32.46,284.741,31.812z"/>
		</g>
	</g>
	<g>
		<g>
			<path d="M310.149,36.53l-3.583,14.566c4.677,1.15,9.366,2.477,13.937,3.943l4.582-14.282
			C320.186,39.186,315.161,37.764,310.149,36.53z"/>
		</g>
	</g>
	<g>
		<g>
			<path d="M427.675,109.013c-24.953-29.116-57.042-51.547-92.802-64.865l-5.235,14.057c68.081,25.357,119.16,85.285,133.304,156.399
			l14.712-2.926C470.14,173.9,452.858,138.399,427.675,109.013z"/>
		</g>
	</g>
	<g>
		<g>
			<path d="M256,64.5C150.407,64.5,64.5,150.406,64.5,256S150.407,447.5,256,447.5S447.5,361.594,447.5,256S361.593,64.5,256,64.5z
			 M256,432.5c-97.322,0-176.5-79.178-176.5-176.5c0-24.663,5.085-48.161,14.261-69.5h27.063v-15h-19.75
			c29.995-54.775,88.195-92,154.926-92c97.322,0,176.5,79.178,176.5,176.5S353.322,432.5,256,432.5z"/>
		</g>
	</g>
	<g>
		<g>
			<path d="M390.25,310.01c-12.695,31.522-36.233,57.707-66.281,73.729l7.058,13.236c33.154-17.68,59.128-46.574,73.137-81.361
			L390.25,310.01z"/>
		</g>
	</g>
	<g>
		<g>
			<path d="M372.442,147.181l-10.962,10.238c3.234,3.464,6.333,7.126,9.208,10.885l11.914-9.113
			C379.43,155.044,376.011,151.003,372.442,147.181z"/>
		</g>
	</g>
	<g>
		<g>
			<path d="M353.051,129.561l-9.145,11.891c3.754,2.886,7.407,5.993,10.859,9.236l10.27-10.934
			C361.225,136.176,357.193,132.746,353.051,129.561z"/>
		</g>
	</g>
	<g>
		<g>
			<path d="M388.698,167.722l-12.483,8.316c2.625,3.943,5.085,8.062,7.309,12.239l13.241-7.047
			C394.31,176.618,391.596,172.074,388.698,167.722z"/>
		</g>
	</g>
	<g>
		<g>
			<path d="M331.029,115.347l-7.066,13.232c4.174,2.229,8.286,4.694,12.223,7.328l8.341-12.466
			C340.179,120.532,335.638,117.809,331.029,115.347z"/>
		</g>
	</g>
	<g>
		<g>
			<path d="M122.071,310.001l-13.907,5.621c5.942,14.702,14.037,28.42,24.059,40.773l11.648-9.451
			C134.789,335.75,127.454,323.32,122.071,310.001z"/>
		</g>
	</g>
	<g>
		<g>
			<path d="M167.603,370.17l-9.194,11.851c4.133,3.206,8.471,6.241,12.893,9.021l7.981-12.701
			C175.277,375.824,171.347,373.074,167.603,370.17z"/>
		</g>
	</g>
	<g>
		<g>
			<path d="M150.099,354.127l-11.006,10.191c3.55,3.834,7.332,7.536,11.242,11.004l9.953-11.223
			C156.745,360.957,153.317,357.602,150.099,354.127z"/>
		</g>
	</g>
	<g>
		<g>
			<path d="M179.127,235.667v-15h-75v15h9.198v40.666h-9.198v15h75v-15h-0.001h-10.215L157.173,256l11.739-20.333H179.127z
			 M128.324,275.967v-39.934L139.852,256L128.324,275.967z M151.591,235.667L148.512,241l-3.079-5.333H151.591z M145.434,276.333
			l3.079-5.333l3.079,5.333H145.434z"/>
		</g>
	</g>
	<g>
		<g>
			<path d="M407.874,235.667v-15h-75v15h8.833v40.666h-8.833v15h75v-15h-8.833v-40.666H407.874z M362.874,276.333h-6.167v-40.666
			h6.167V276.333z M384.04,276.333h-6.167v-40.666h6.167V276.333z"/>
		</g>
	</g>
	<g>
		<g>
			<path d="M206.334,96.333v15h11.291l11.74,20.334L217.625,152h-11.292v15h99.333v-15h-10.273v-40.667h10.274v-15H206.334z
			 M234.946,152l3.079-5.333l3.079,5.333H234.946z M238.024,116.667l-3.079-5.334h6.159L238.024,116.667z M258.212,151.633
			l-11.528-19.966l11.528-19.966V151.633z M280.392,152h-7.18v-40.667h7.18V152z"/>
		</g>
	</g>
	<g>
		<g>
			<path d="M293.5,360v-15h-75v15h7.055l11.975,40.667H218.5v15h75v-15h-7.985V360H293.5z M247.556,381.617L241.191,360h12.731
			L247.556,381.617z M270.515,400.667h-12.932L269.558,360h0.957V400.667z"/>
		</g>
	</g>
	<g>
		<g>
			<path d="M311.97,210.637l-10.607-10.608l-33.682,33.683c-3.493-1.838-7.468-2.879-11.681-2.879
			c-13.877,0-25.167,11.29-25.167,25.167s11.29,25.167,25.167,25.167s25.167-11.29,25.167-25.167c0-4.213-1.041-8.188-2.879-11.681
			L311.97,210.637z M256,266.167c-5.606,0-10.167-4.561-10.167-10.167c0-5.606,4.561-10.167,10.167-10.167
			c5.606,0,10.167,4.561,10.167,10.167C266.167,261.606,261.606,266.167,256,266.167z"/>
		</g>
	</g>
	<g>
		<g>
			<rect x="200.247" y="174.632" transform="matrix(0.7071 -0.7071 0.7071 0.7071 -86.0514 207.7465)" width="15" height="66.229"/>
		</g>
	</g>
	<g>
	</g>
	<g>
	</g>
	<g>
	</g>
	<g>
	</g>
	<g>
	</g>
	<g>
	</g>
	<g>
	</g>
	<g>
	</g>
	<g>
	</g>
	<g>
	</g>
	<g>
	</g>
	<g>
	</g>
	<g>
	</g>
	<g>
	</g>
	<g>
	</g>
</svg>
